<svg width="66" height="39" viewBox="0 0 66 39" fill="none" xmlns="http://www.w3.org/2000/svg">
<path d="M17.6931 29.2933C27.468 39.0682 37.5484 39.0682 47.3233 29.2933L43.0468 23.795C38.7703 30.5152 28.6899 32.6535 22.5806 23.795L17.6931 29.2933Z" fill="#8A0000"/>
<path d="M50.2272 17.3747C58.0061 11.8187 61.8531 15.0784 62.8042 17.4027C56.0639 16.0574 46.8475 30.0337 46.8475 30.0337C46.308 29.9127 43.7368 26.2529 42.5186 24.4382C43.1628 23.3493 47.9261 19.2755 50.2272 17.3747Z" fill="#8A0000"/>
<path d="M14.9002 17.5937C7.05502 12.1317 3.24753 15.4374 2.32442 17.773C9.04802 16.3467 18.4319 30.2111 18.4319 30.2111C18.9699 30.0837 21.4969 26.3933 22.6931 24.564C22.036 23.4829 17.224 19.4667 14.9002 17.5937Z" fill="#8A0000"/>
<path d="M63.4842 29.2258C67.3618 19.5305 62.839 15.5784 60.3265 14.8086C63.5482 19.0938 59.7107 27.8745 54.0247 31.1714C47.5589 34.4465 41.263 20.1054 37.8564 16.6825C35.0471 14.0416 32.8831 14.1144 32.8831 14.1144L32.9664 21.9618C32.9664 21.9618 34.2591 21.8145 39.5752 29.6153C45.4452 40.2258 58.6372 41.3451 63.4842 29.2258Z" fill="#FF0000"/>
<path d="M1.96786 29.6065C-2.02605 19.9585 2.44889 15.9523 4.95193 15.1523C1.78196 19.4759 5.72478 28.2099 11.4501 31.4382C17.9548 34.6353 24.0778 20.2195 27.443 16.7559C30.2203 14.0814 32.8831 14.1144 32.8831 14.1144L32.9664 21.9618C32.9664 21.9618 31.2483 21.8145 25.8799 29.7084C20.1378 40.3887 6.96025 41.6666 1.96786 29.6065Z" fill="#FF0000"/>
<circle cx="51.8426" cy="6.28866" r="5.45327" transform="rotate(178.6 51.8426 6.28866)" fill="#252525"/>
<circle cx="12.6081" cy="6.10003" r="5.45327" transform="rotate(-179.289 12.6081 6.10003)" fill="#252525"/>
<circle cx="32.7225" cy="6.05169" r="5.45327" transform="rotate(-179.289 32.7225 6.05169)" fill="#252525"/>
</svg>
